<?xml version="1.0" standalone="no"?>
<!DOCTYPE svg PUBLIC "-//W3C//DTD SVG 20010904//EN"
 "http://www.w3.org/TR/2001/REC-SVG-20010904/DTD/svg10.dtd">
<svg version="1.0" xmlns="http://www.w3.org/2000/svg"
 width="512.000000pt" height="512.000000pt" viewBox="0 0 512.000000 512.000000"
 preserveAspectRatio="xMidYMid meet">
<metadata>
Created by potrace 1.14, written by Peter Selinger 2001-2017
</metadata>
<g transform="translate(0.000000,512.000000) scale(0.100000,-0.100000)"
fill="#000000" stroke="none">
<path d="M1328 4255 c-2 -2 -30 -5 -63 -9 -314 -32 -609 -254 -824 -620 -109
-185 -206 -399 -272 -601 -18 -55 -34 -104 -35 -110 -1 -5 -14 -55 -28 -110
-29 -111 -55 -246 -72 -364 -3 -25 -8 -57 -10 -71 -27 -169 -25 -670 2 -860
31 -214 54 -308 95 -393 60 -127 151 -206 270 -236 174 -44 296 1 531 196 82
68 320 301 398 389 19 21 69 77 110 124 99 111 104 116 180 153 l65 32 890 0
890 0 57 -29 c50 -25 91 -59 147 -121 10 -11 60 -67 111 -125 300 -336 589
-577 748 -623 85 -24 207 -10 297 35 85 42 184 171 216 280 20 70 51 228 64
328 30 231 27 665 -5 890 -23 160 -38 241 -71 375 -82 338 -228 676 -404 940
-278 418 -646 589 -1089 509 -168 -31 -370 -115 -546 -230 -136 -88 -185 -99
-430 -98 -193 0 -209 2 -270 25 -36 14 -114 55 -173 93 -242 151 -454 221
-704 230 -40 2 -74 2 -75 1z m2337 -594 c58 -26 107 -71 135 -128 34 -65 35
-188 3 -248 -54 -101 -136 -150 -253 -149 -81 0 -126 17 -186 71 -31 28 -72
97 -80 137 -48 221 176 408 381 317z m-2111 -191 l51 -17 0 -171 0 -172 35 -1
c19 0 95 0 168 0 l132 0 27 -52 c36 -70 38 -167 4 -249 l-23 -58 -177 0 -178
0 1 -166 c1 -190 4 -183 -88 -209 -77 -23 -169 -16 -225 16 -47 26 -43 8 -42
222 l1 137 -169 0 -168 0 -16 38 c-38 87 -42 177 -10 264 11 33 24 50 38 53
11 3 91 4 178 2 l157 -2 0 176 0 177 30 12 c72 30 187 30 274 0z m2808 -222
c112 -48 182 -189 154 -314 -17 -81 -92 -164 -174 -194 -170 -64 -353 51 -369
232 -7 77 11 139 60 200 77 98 208 128 329 76z m-687 -356 c143 -73 196 -241
119 -383 -97 -177 -358 -189 -469 -21 -100 152 -32 353 142 418 52 20 157 13
208 -14z"/>
</g>
</svg>
